<svg xmlns="http://www.w3.org/2000/svg" viewBox="56.2 31.700000000000003 291.0 250.0" width="291.0" height="250.0">
  <defs>
    <linearGradient id="darkGreen" x1="0%" y1="100%" x2="100%" y2="0%">
      <stop offset="0%" stop-color="#2d5a26"/>
      <stop offset="40%" stop-color="#4a8c40"/>
      <stop offset="70%" stop-color="#6abf5a"/>
      <stop offset="100%" stop-color="#8dd870"/>
    </linearGradient>
    <linearGradient id="lightGreen" x1="0%" y1="100%" x2="100%" y2="0%">
      <stop offset="0%" stop-color="#5fb234"/>
      <stop offset="40%" stop-color="#80c846"/>
      <stop offset="70%" stop-color="#a8e878"/>
      <stop offset="100%" stop-color="#c4f59e"/>
    </linearGradient>
    <filter id="softGlow" x="-20%" y="-20%" width="140%" height="140%">
      <feGaussianBlur stdDeviation="2.5" result="coloredBlur"/>
      <feMerge>
        <feMergeNode in="coloredBlur"/>
        <feMergeNode in="SourceGraphic"/>
      </feMerge>
    </filter>
  </defs>
    <!-- Main shapes (without leftmost hump) -->
    <path d="M329.800 43.595 C 320.828 47.386,318.065 48.536,316.200 49.257 C 315.100 49.682,313.660 50.284,313.000 50.595 C 312.340 50.906,309.640 52.079,307.000 53.202 C 304.360 54.326,301.840 55.403,301.400 55.597 C 295.763 58.078,291.230 60.000,291.016 60.000 C 290.758 60.000,289.677 60.480,283.800 63.203 C 282.260 63.916,280.296 64.750,279.435 65.055 C 276.106 66.236,275.872 67.619,278.701 69.387 C 279.745 70.040,281.590 71.262,282.800 72.102 C 284.010 72.943,286.980 74.939,289.400 76.539 C 292.420 78.536,293.839 79.718,293.926 80.308 C 294.078 81.351,291.590 85.010,280.997 99.318 C 279.239 101.693,276.589 105.293,275.108 107.318 C 269.184 115.421,268.581 116.212,268.100 116.520 C 267.825 116.696,267.600 117.015,267.600 117.230 C 267.600 117.627,260.604 126.969,256.238 132.400 C 253.258 136.108,249.240 141.147,247.149 143.800 C 246.282 144.900,244.318 147.330,242.785 149.200 C 241.252 151.070,238.164 154.850,235.922 157.600 C 230.795 163.888,226.172 168.914,225.170 169.287 C 224.747 169.445,224.400 169.856,224.400 170.201 C 224.400 172.030,193.962 201.485,185.263 208.073 C 175.565 215.418,164.630 222.984,156.800 227.767 C 153.525 229.767,148.313 232.564,143.600 234.851 C 135.940 238.568,134.528 239.200,133.885 239.200 C 133.534 239.200,133.144 239.367,133.018 239.571 C 132.892 239.775,132.116 240.148,131.294 240.401 C 130.472 240.654,129.260 241.103,128.600 241.400 C 126.204 242.476,117.497 245.149,108.000 247.722 C 103.305 248.995,94.959 250.716,91.095 251.210 C 89.503 251.413,87.390 251.762,86.400 251.985 C 85.410 252.207,80.850 252.511,76.266 252.659 C 68.299 252.916,67.918 252.964,67.623 253.764 C 67.167 255.001,66.225 269.366,66.545 270.202 C 66.885 271.088,82.170 270.778,88.000 269.768 C 89.870 269.443,92.750 269.080,94.400 268.961 C 97.207 268.758,100.457 268.152,108.200 266.387 C 109.960 265.986,112.030 265.538,112.800 265.392 C 114.396 265.090,118.668 263.920,122.200 262.820 C 123.520 262.408,126.220 261.568,128.200 260.952 C 130.180 260.336,132.250 259.601,132.800 259.318 C 133.350 259.036,134.011 258.804,134.270 258.802 C 134.725 258.800,140.314 256.646,141.575 255.986 C 141.919 255.807,144.180 254.737,146.600 253.610 C 149.020 252.483,151.270 251.396,151.600 251.194 C 151.930 250.993,153.370 250.245,154.800 249.533 C 157.690 248.094,165.289 243.773,170.200 240.776 C 171.960 239.702,173.766 238.657,174.213 238.454 C 174.660 238.252,175.853 237.455,176.863 236.684 C 177.873 235.913,179.127 235.060,179.650 234.789 C 183.161 232.969,199.713 220.252,207.200 213.621 C 208.758 212.241,208.668 212.317,212.587 209.067 C 219.449 203.375,236.241 186.419,245.354 175.980 C 246.209 175.001,248.467 172.490,250.371 170.400 C 256.199 164.003,265.980 152.315,271.754 144.845 C 273.049 143.170,275.676 139.818,277.591 137.395 C 279.507 134.973,281.327 132.586,281.636 132.091 C 281.945 131.596,282.513 131.091,282.899 130.969 C 283.285 130.846,283.600 130.488,283.600 130.172 C 283.600 129.856,286.165 126.222,289.300 122.097 C 292.435 117.971,295.900 113.372,297.000 111.876 C 298.100 110.379,299.720 108.183,300.600 106.994 C 301.480 105.806,303.460 103.014,305.000 100.791 C 312.111 90.523,311.411 90.956,315.600 94.236 C 330.515 105.918,332.000 106.888,332.000 104.944 C 332.000 104.631,332.405 104.211,332.900 104.012 C 333.659 103.707,333.683 103.647,333.052 103.625 C 332.213 103.597,332.218 103.322,333.437 83.200 C 334.227 70.164,335.577 46.391,335.589 45.287 C 335.596 44.720,335.941 44.237,336.500 44.012 C 337.168 43.744,337.223 43.644,336.714 43.625 C 336.337 43.611,335.835 43.240,335.600 42.800 C 335.006 41.690,333.972 41.832,329.800 43.595 M334.748 43.337 C 334.993 43.632,335.061 44.006,334.900 44.167 C 334.738 44.328,334.397 48.272,334.142 52.930 C 333.886 57.589,333.477 63.650,333.233 66.400 C 332.988 69.150,332.613 75.360,332.398 80.200 C 332.184 85.040,331.812 90.800,331.573 93.000 C 331.333 95.200,331.216 98.664,331.313 100.697 C 331.521 105.080,331.057 105.956,329.541 104.044 C 328.747 103.043,325.939 100.674,322.600 98.189 C 322.160 97.861,321.234 97.145,320.542 96.596 C 319.850 96.048,319.129 95.600,318.938 95.600 C 318.748 95.600,318.368 95.240,318.093 94.800 C 317.818 94.360,317.390 94.000,317.142 94.000 C 316.895 94.000,316.289 93.595,315.797 93.100 C 312.930 90.218,311.221 89.652,310.356 91.300 C 310.096 91.795,309.639 92.344,309.342 92.520 C 309.044 92.696,308.800 93.101,308.800 93.420 C 308.800 93.739,308.485 94.318,308.100 94.707 C 307.715 95.095,307.040 95.932,306.600 96.566 C 306.160 97.200,305.530 98.106,305.200 98.579 C 304.870 99.051,304.177 100.104,303.660 100.919 C 303.144 101.734,302.571 102.400,302.387 102.400 C 302.204 102.400,301.928 102.805,301.773 103.300 C 301.619 103.795,301.381 104.290,301.246 104.400 C 300.871 104.705,298.733 107.583,297.394 109.587 C 296.737 110.569,295.964 111.649,295.675 111.987 C 295.386 112.324,294.618 113.320,293.969 114.200 C 292.309 116.449,291.916 116.964,288.888 120.858 C 287.410 122.760,285.840 124.827,285.400 125.451 C 284.960 126.075,284.240 126.960,283.800 127.418 C 283.360 127.875,282.460 129.042,281.800 130.011 C 281.140 130.980,280.285 132.094,279.900 132.487 C 279.515 132.879,279.198 133.335,279.195 133.500 C 279.192 133.665,278.472 134.573,277.595 135.517 C 276.718 136.462,276.000 137.336,276.000 137.460 C 276.000 137.583,275.595 138.183,275.100 138.792 C 274.605 139.401,273.840 140.409,273.400 141.032 C 272.621 142.135,271.317 143.702,269.900 145.240 C 269.515 145.658,269.200 146.113,269.200 146.251 C 269.200 146.475,264.366 152.389,262.815 154.063 C 262.477 154.428,261.840 155.191,261.400 155.759 C 260.271 157.216,259.001 158.676,256.750 161.102 C 255.678 162.258,254.800 163.383,254.800 163.602 C 254.800 163.821,254.530 164.000,254.200 164.000 C 253.870 164.000,253.600 164.154,253.600 164.342 C 253.600 164.529,253.150 165.169,252.600 165.762 C 252.050 166.356,251.600 167.012,251.600 167.221 C 251.600 167.429,251.326 167.600,250.990 167.600 C 250.655 167.600,250.218 168.025,250.021 168.545 C 249.823 169.065,249.377 169.600,249.031 169.733 C 248.684 169.866,248.400 170.238,248.400 170.560 C 248.400 170.883,248.040 171.260,247.600 171.400 C 247.160 171.540,246.800 171.789,246.800 171.955 C 246.800 172.666,242.409 176.853,241.957 176.573 C 241.660 176.390,241.581 176.446,241.750 176.719 C 242.072 177.240,237.737 182.000,236.941 182.000 C 236.589 182.000,236.400 181.510,236.400 180.600 C 236.400 179.830,236.572 179.200,236.782 179.200 C 236.992 179.200,237.614 178.750,238.164 178.200 L 239.164 177.200 238.182 177.200 C 237.607 177.200,237.200 177.432,237.200 177.760 C 237.200 178.069,236.560 178.699,235.777 179.160 C 234.125 180.136,234.000 180.161,234.000 179.526 C 234.000 179.265,233.630 178.658,233.178 178.176 C 232.434 177.385,232.415 177.242,232.978 176.679 C 233.865 175.792,233.809 175.751,231.700 175.759 C 228.945 175.769,228.400 175.458,228.400 173.882 C 228.400 172.600,228.460 172.546,229.700 172.698 C 230.697 172.820,230.860 172.758,230.400 172.434 C 229.533 171.824,228.411 171.905,228.146 172.598 C 228.019 172.926,227.764 173.101,227.578 172.986 C 227.392 172.872,227.045 173.143,226.806 173.589 C 226.567 174.035,226.487 174.400,226.627 174.400 C 226.767 174.400,226.324 174.890,225.641 175.489 C 224.959 176.088,224.400 176.797,224.400 177.065 C 224.400 177.333,224.192 177.681,223.938 177.838 C 223.629 178.029,223.582 177.938,223.797 177.562 C 224.048 177.121,224.007 177.102,223.606 177.473 C 223.315 177.741,223.213 178.256,223.368 178.662 C 223.574 179.199,223.722 179.251,223.957 178.870 C 224.199 178.478,224.399 178.518,224.835 179.046 C 225.348 179.666,225.299 179.710,224.300 179.520 C 223.695 179.405,223.200 179.466,223.200 179.655 C 223.200 179.845,223.391 180.000,223.624 180.000 C 223.857 180.000,223.934 180.183,223.796 180.407 C 223.658 180.630,223.377 180.709,223.172 180.583 C 222.604 180.232,222.729 181.350,223.353 182.204 C 223.940 183.007,223.590 184.112,222.462 185.014 C 221.676 185.643,222.042 187.362,223.000 187.542 C 223.949 187.720,226.069 189.965,225.760 190.465 C 225.642 190.656,225.349 190.692,225.111 190.545 C 224.862 190.391,224.791 190.461,224.944 190.709 C 225.091 190.948,224.858 191.255,224.426 191.392 C 223.907 191.557,223.725 191.859,223.888 192.286 C 224.067 192.750,223.987 192.839,223.606 192.604 C 223.254 192.386,223.172 192.431,223.362 192.738 C 223.834 193.502,224.800 193.259,224.800 192.376 C 224.800 191.897,224.978 191.662,225.225 191.816 C 225.459 191.960,225.954 191.805,226.325 191.470 C 227.403 190.499,229.200 190.178,229.200 190.957 C 229.200 191.310,228.942 191.600,228.627 191.600 C 228.312 191.600,227.943 191.951,227.806 192.380 C 227.670 192.808,227.208 193.270,226.780 193.406 C 226.351 193.543,226.000 193.929,226.000 194.264 C 226.000 194.600,225.640 194.969,225.200 195.084 C 224.760 195.199,224.400 195.547,224.400 195.857 C 224.400 196.166,223.950 196.591,223.400 196.800 C 222.850 197.009,222.400 197.434,222.400 197.743 C 222.400 198.053,222.040 198.401,221.600 198.516 C 221.160 198.631,220.800 198.999,220.800 199.335 C 220.800 199.670,220.395 200.002,219.900 200.072 C 219.299 200.158,219.039 200.433,219.118 200.900 C 219.200 201.390,218.971 201.600,218.356 201.600 C 217.524 201.600,217.513 201.559,218.148 200.858 C 218.813 200.123,218.655 198.595,217.958 199.026 C 217.761 199.148,217.600 199.062,217.600 198.836 C 217.600 198.610,217.348 198.522,217.040 198.640 C 216.310 198.920,215.746 198.004,216.400 197.600 C 216.676 197.429,216.766 197.069,216.600 196.800 C 216.430 196.525,216.540 196.157,216.849 195.961 C 217.217 195.728,217.241 195.610,216.920 195.606 C 216.656 195.603,216.265 195.912,216.051 196.294 C 215.714 196.896,215.624 196.836,215.375 195.842 C 215.164 195.002,215.253 194.602,215.706 194.348 C 216.344 193.992,216.219 192.400,215.553 192.400 C 214.921 192.400,214.598 192.594,214.703 192.909 C 214.760 193.079,214.337 193.396,213.764 193.614 C 213.191 193.831,212.629 194.367,212.515 194.805 C 212.276 195.719,211.959 195.799,211.280 195.120 C 210.907 194.747,210.800 194.791,210.800 195.320 C 210.800 195.694,210.609 196.000,210.376 196.000 C 210.143 196.000,210.055 195.835,210.179 195.634 C 210.303 195.433,210.192 195.197,209.932 195.111 C 209.109 194.836,210.001 194.000,211.124 193.994 C 211.874 193.990,212.037 193.884,211.661 193.646 C 211.364 193.458,211.094 192.831,211.061 192.253 C 211.020 191.548,210.773 191.200,210.313 191.200 C 209.866 191.200,209.706 191.410,209.855 191.800 C 209.982 192.130,209.886 192.400,209.643 192.400 C 209.399 192.400,209.200 192.670,209.200 193.000 C 209.200 193.538,208.119 193.840,207.000 193.614 C 206.780 193.570,206.734 193.667,206.897 193.831 C 207.061 193.994,206.852 194.369,206.432 194.662 C 205.988 194.974,205.712 195.577,205.770 196.110 C 205.882 197.127,201.693 197.675,200.400 196.812 C 199.902 196.480,199.940 196.411,200.622 196.406 C 201.396 196.400,204.400 194.019,204.400 193.411 C 204.400 193.163,207.995 189.559,217.500 180.278 C 219.095 178.721,220.400 177.301,220.400 177.123 C 220.400 176.946,220.655 176.800,220.967 176.800 C 221.278 176.800,221.593 176.642,221.667 176.448 C 221.846 175.976,225.174 172.037,226.300 170.965 C 226.795 170.494,227.200 169.814,227.200 169.454 C 227.200 169.067,227.526 168.800,228.000 168.800 C 228.524 168.800,228.800 168.533,228.800 168.027 C 228.800 167.602,229.160 167.140,229.600 167.000 C 230.040 166.860,230.400 166.495,230.400 166.187 C 230.400 165.880,230.748 165.442,231.173 165.214 C 231.598 164.987,232.060 164.441,232.200 164.000 C 232.340 163.560,232.712 163.200,233.027 163.200 C 233.342 163.200,233.600 163.036,233.600 162.835 C 233.600 162.634,234.500 161.393,235.600 160.076 C 236.700 158.760,237.600 157.574,237.600 157.441 C 237.600 157.213,237.818 156.932,239.500 154.993 C 239.885 154.549,240.821 153.379,241.579 152.393 C 243.195 150.293,243.874 149.490,245.100 148.232 C 245.595 147.724,246.000 147.164,246.000 146.988 C 246.000 146.811,246.276 146.382,246.614 146.034 C 247.181 145.447,259.495 130.055,263.182 125.323 C 264.072 124.181,264.800 123.063,264.800 122.837 C 264.800 122.612,265.160 122.235,265.600 122.000 C 266.040 121.765,266.400 121.382,266.400 121.150 C 266.400 120.918,267.210 119.779,268.200 118.621 C 269.190 117.462,270.000 116.383,270.000 116.222 C 270.000 115.961,271.453 113.941,276.775 106.800 C 279.832 102.698,281.797 100.024,282.800 98.600 C 283.350 97.820,284.160 96.749,284.600 96.221 C 285.040 95.693,285.850 94.600,286.400 93.792 C 286.950 92.984,287.715 92.030,288.100 91.672 C 288.485 91.315,288.800 90.865,288.800 90.673 C 288.800 90.482,289.610 89.260,290.600 87.958 C 291.590 86.656,292.400 85.473,292.400 85.329 C 292.400 85.185,292.667 84.782,292.992 84.434 C 296.006 81.211,296.362 79.635,294.349 78.430 C 293.771 78.083,292.312 77.125,291.108 76.300 C 289.903 75.475,288.739 74.800,288.521 74.800 C 288.302 74.800,287.798 74.440,287.400 74.000 C 287.002 73.560,286.524 73.200,286.338 73.200 C 286.152 73.200,285.685 72.918,285.300 72.574 C 284.260 71.643,282.055 70.205,279.800 68.986 C 278.700 68.392,277.726 67.838,277.636 67.755 C 277.314 67.461,278.935 66.000,279.583 66.000 C 280.189 66.000,281.996 65.229,286.200 63.178 C 287.080 62.749,287.937 62.398,288.104 62.399 C 288.272 62.400,289.172 62.054,290.104 61.631 C 291.037 61.208,293.150 60.302,294.800 59.618 C 296.450 58.935,298.340 58.123,299.000 57.815 C 299.660 57.507,300.650 57.131,301.200 56.980 C 301.750 56.829,302.470 56.478,302.800 56.200 C 303.130 55.922,303.850 55.570,304.400 55.417 C 305.342 55.155,306.442 54.686,310.500 52.817 C 311.435 52.386,312.688 51.918,313.284 51.777 C 313.880 51.637,314.577 51.269,314.833 50.961 C 315.089 50.652,315.579 50.400,315.923 50.400 C 316.266 50.400,317.279 50.060,318.174 49.644 C 322.108 47.816,324.530 46.800,324.954 46.800 C 325.206 46.800,326.084 46.440,326.904 46.000 C 327.725 45.560,328.623 45.196,328.899 45.191 C 329.174 45.187,330.390 44.658,331.600 44.016 C 334.189 42.642,334.174 42.646,334.748 43.337 M220.679 101.615 C 212.581 103.643,205.599 111.801,201.177 124.400 C 200.675 125.830,200.132 127.180,199.969 127.400 C 199.683 127.787,199.154 129.544,197.559 135.400 C 196.209 140.359,193.200 155.890,193.200 157.902 C 193.200 158.007,192.840 157.999,192.400 157.884 C 191.905 157.755,191.600 157.872,191.600 158.191 C 191.600 158.475,191.960 158.801,192.400 158.916 C 192.840 159.031,193.200 159.416,193.200 159.771 C 193.200 160.125,193.666 161.154,194.235 162.056 C 196.130 165.057,200.631 174.157,201.781 177.312 C 203.040 180.764,203.225 180.981,204.608 180.634 C 206.355 180.195,207.380 177.577,208.381 171.000 C 209.369 164.502,211.594 151.945,211.824 151.566 C 211.902 151.437,212.256 149.907,212.611 148.166 C 214.043 141.137,217.024 131.686,219.728 125.600 C 220.925 122.906,223.718 119.122,224.807 118.719 C 228.012 117.534,233.866 127.683,237.082 140.000 C 237.488 141.556,239.400 141.852,240.171 140.479 C 240.375 140.115,241.923 138.374,243.612 136.609 C 252.601 127.213,252.228 128.087,249.585 122.600 C 248.159 119.640,247.132 117.889,244.458 113.860 C 242.875 111.475,238.586 107.003,236.282 105.334 C 235.137 104.505,234.110 103.720,234.000 103.591 C 232.694 102.053,224.050 100.771,220.679 101.615 M230.107 103.229 C 231.023 103.475,232.207 104.020,232.740 104.439 C 233.272 104.857,233.865 105.200,234.057 105.200 C 235.346 105.200,242.565 112.280,243.469 114.429 C 243.740 115.073,244.150 115.600,244.381 115.600 C 244.611 115.600,244.800 115.790,244.800 116.021 C 244.800 116.253,245.250 117.105,245.800 117.914 C 246.350 118.723,246.800 119.676,246.800 120.031 C 246.800 120.386,247.144 120.987,247.564 121.367 C 247.984 121.748,248.448 122.541,248.595 123.129 C 248.742 123.718,249.094 124.470,249.377 124.800 C 250.936 126.616,250.622 127.467,246.917 131.472 C 244.982 133.562,242.546 136.201,241.502 137.336 C 240.457 138.471,239.602 139.600,239.602 139.845 C 239.595 141.680,237.717 139.718,237.326 137.468 C 236.883 134.913,236.014 132.164,234.776 129.400 C 234.382 128.520,233.844 127.215,233.581 126.500 C 233.318 125.785,232.984 125.200,232.839 125.200 C 232.694 125.200,232.383 124.705,232.149 124.100 C 229.766 117.957,224.959 115.799,222.171 119.620 C 221.527 120.503,220.595 121.715,220.100 122.313 C 219.606 122.911,219.201 123.580,219.202 123.800 C 219.202 124.020,218.859 124.920,218.439 125.800 C 216.803 129.232,216.067 131.053,215.802 132.327 C 215.649 133.057,215.273 134.137,214.964 134.727 C 214.656 135.317,214.301 136.430,214.175 137.200 C 214.049 137.970,213.691 139.230,213.378 140.000 C 213.066 140.770,212.552 142.570,212.235 144.000 C 211.919 145.430,211.379 147.680,211.036 149.000 C 210.693 150.320,210.410 151.985,210.406 152.700 C 210.403 153.415,210.235 154.000,210.033 154.000 C 209.517 154.000,208.800 157.623,208.800 160.234 C 208.800 161.441,208.554 162.827,208.253 163.314 C 207.953 163.801,207.511 166.312,207.271 168.894 C 207.031 171.475,206.647 173.938,206.418 174.367 C 206.188 174.796,206.000 175.612,206.000 176.179 C 206.000 177.238,205.311 178.772,204.600 179.294 C 203.662 179.983,203.290 179.494,203.112 177.340 C 203.003 176.034,202.680 174.894,202.346 174.640 C 202.028 174.398,201.543 173.435,201.268 172.500 C 200.993 171.565,200.603 170.800,200.402 170.800 C 200.201 170.800,199.920 170.182,199.779 169.426 C 199.637 168.671,199.179 167.743,198.760 167.364 C 198.342 166.986,198.000 166.342,198.000 165.934 C 198.000 165.526,197.640 164.884,197.200 164.507 C 196.760 164.130,196.400 163.627,196.400 163.389 C 196.400 163.150,195.934 162.335,195.365 161.578 C 194.274 160.125,194.204 154.661,195.252 152.703 C 195.471 152.294,195.896 150.123,196.197 147.880 C 197.212 140.308,200.195 128.981,202.440 124.174 C 202.858 123.279,203.200 122.266,203.200 121.923 C 203.200 121.579,203.470 121.074,203.800 120.800 C 204.130 120.526,204.400 120.114,204.400 119.885 C 204.400 119.448,206.832 114.374,207.697 113.005 C 209.776 109.716,213.380 106.066,215.468 105.135 C 216.386 104.725,217.196 104.233,217.268 104.040 C 217.775 102.693,226.152 102.164,230.107 103.229 M307.060 110.907 C 306.679 111.186,306.149 111.794,305.883 112.258 C 305.367 113.160,302.362 117.562,300.462 120.200 C 299.828 121.080,298.638 122.846,297.817 124.125 L 296.325 126.449 296.992 129.125 C 297.358 130.596,298.006 133.060,298.431 134.600 C 298.855 136.140,299.200 137.760,299.197 138.200 C 299.194 138.640,299.566 141.070,300.023 143.600 C 300.481 146.130,301.209 150.180,301.642 152.600 C 303.176 161.169,304.124 177.101,303.618 185.800 C 302.854 198.926,302.407 204.225,301.830 207.000 C 301.509 208.540,301.054 211.330,300.818 213.200 C 300.582 215.070,300.123 217.590,299.799 218.800 C 299.475 220.010,299.207 221.456,299.205 222.013 C 299.202 222.570,298.921 224.010,298.581 225.213 C 298.240 226.416,297.725 228.390,297.437 229.600 C 296.403 233.936,294.645 239.092,292.935 242.800 C 288.555 252.300,285.180 255.240,283.037 251.422 C 282.797 250.994,282.319 250.322,281.976 249.928 C 277.017 244.240,271.262 223.513,267.393 197.400 C 267.067 195.200,266.533 191.600,266.207 189.400 C 265.881 187.200,265.347 183.870,265.020 182.000 C 264.694 180.130,264.146 176.800,263.803 174.600 C 263.167 170.521,262.548 168.400,261.993 168.400 C 261.672 168.400,258.127 172.363,255.472 175.690 C 254.642 176.730,253.692 177.851,253.361 178.182 C 251.870 179.673,248.400 184.148,248.400 184.580 C 248.400 185.313,249.566 193.143,250.011 195.400 C 250.228 196.500,250.663 199.290,250.979 201.600 C 252.908 215.704,254.792 225.118,257.424 233.800 C 258.024 235.780,258.817 238.480,259.186 239.800 C 259.555 241.120,260.181 242.920,260.576 243.800 C 260.972 244.680,261.753 246.480,262.312 247.800 C 269.408 264.562,277.731 271.512,288.497 269.666 C 295.094 268.535,301.374 263.040,305.715 254.600 C 308.224 249.723,310.780 243.252,312.193 238.200 C 312.500 237.100,313.224 234.580,313.801 232.600 C 314.378 230.620,315.091 227.740,315.386 226.200 C 315.681 224.660,316.204 222.050,316.547 220.400 C 320.233 202.689,321.421 180.852,319.600 164.281 C 318.094 150.575,316.105 138.357,314.607 133.600 C 314.295 132.610,313.916 130.990,313.765 130.000 C 313.614 129.010,313.301 127.840,313.070 127.400 C 312.839 126.960,312.422 125.520,312.144 124.200 C 311.866 122.880,311.155 120.270,310.564 118.400 C 309.973 116.530,309.220 113.965,308.890 112.700 C 308.248 110.240,308.130 110.125,307.060 110.907 M159.831 147.417 C 158.528 147.958,157.164 148.671,156.800 149.000 C 156.435 149.330,156.004 149.600,155.842 149.600 C 154.947 149.600,148.413 155.633,148.403 156.469 C 148.401 156.617,147.967 157.253,147.439 157.881 C 146.910 158.509,145.914 160.098,145.225 161.412 C 144.537 162.725,143.815 164.070,143.621 164.400 C 142.998 165.461,141.200 169.469,141.200 169.796 C 141.200 169.970,140.862 170.852,140.449 171.756 C 137.862 177.422,136.880 182.627,138.310 183.103 C 138.590 183.197,139.090 183.842,139.421 184.537 C 139.751 185.231,140.558 186.700,141.213 187.800 C 141.868 188.900,142.505 190.070,142.629 190.400 C 142.752 190.730,143.291 191.918,143.827 193.040 C 144.362 194.162,144.800 195.249,144.800 195.455 C 144.800 195.662,145.160 196.537,145.600 197.400 C 146.040 198.263,146.400 199.212,146.400 199.509 C 146.400 199.806,146.886 201.073,147.480 202.325 L 148.561 204.600 149.010 202.400 C 149.258 201.190,149.661 199.570,149.907 198.800 C 150.154 198.030,150.477 196.320,150.626 195.000 C 150.775 193.680,151.145 191.993,151.448 191.251 C 151.752 190.509,152.000 189.559,152.000 189.140 C 152.000 186.861,156.561 174.654,158.930 170.594 C 161.150 166.790,161.495 166.323,163.800 164.007 C 166.467 161.327,171.371 164.473,174.037 170.574 C 174.236 171.028,174.572 171.670,174.784 172.000 C 175.312 172.821,177.200 177.010,177.200 177.361 C 177.200 177.516,177.565 178.444,178.010 179.422 C 178.456 180.400,178.934 181.785,179.074 182.500 C 179.214 183.215,179.556 184.160,179.835 184.600 C 180.113 185.040,180.472 186.120,180.633 187.000 C 180.794 187.880,181.171 189.188,181.471 189.906 C 181.770 190.624,182.279 192.585,182.600 194.264 C 182.921 195.942,183.461 197.739,183.800 198.256 L 184.417 199.197 185.726 197.899 C 186.447 197.184,189.155 194.640,191.746 192.244 C 198.202 186.272,198.555 185.322,195.931 181.000 C 195.531 180.340,195.202 179.489,195.201 179.110 C 195.201 178.730,194.841 177.830,194.401 177.110 C 193.962 176.389,193.602 175.482,193.601 175.093 C 193.600 174.477,192.497 171.968,191.098 169.400 C 190.859 168.960,189.979 167.288,189.143 165.685 C 187.654 162.829,184.893 158.396,184.357 158.000 C 184.208 157.890,183.392 156.887,182.543 155.771 C 180.336 152.869,174.391 148.041,172.959 147.986 C 172.761 147.979,171.880 147.625,171.000 147.200 C 168.535 146.009,162.961 146.118,159.831 147.417 M262.334 173.092 C 262.340 174.726,262.621 176.994,262.957 178.132 C 263.293 179.269,263.751 182.229,263.974 184.708 C 264.198 187.187,264.568 189.567,264.798 189.996 C 265.028 190.425,265.329 193.077,265.468 195.888 C 265.670 199.987,265.867 201.189,266.460 201.954 C 267.320 203.063,267.611 210.171,266.762 209.322 C 266.278 208.838,265.842 206.569,265.817 204.400 C 265.798 202.855,265.066 201.788,264.335 202.240 C 264.011 202.441,263.949 202.309,264.138 201.817 C 264.354 201.256,264.250 201.146,263.650 201.303 C 263.231 201.412,262.660 201.361,262.380 201.188 C 261.531 200.663,259.159 202.030,259.288 202.970 C 259.363 203.514,259.137 203.831,258.600 203.933 C 256.394 204.355,256.239 205.985,258.202 208.122 C 259.513 209.550,259.604 209.587,259.667 208.722 C 259.704 208.215,259.842 208.880,259.973 210.200 C 260.254 213.026,260.078 213.666,259.378 212.359 C 259.099 211.837,258.955 211.273,259.059 211.105 C 259.162 210.937,259.051 210.800,258.811 210.800 C 258.571 210.800,258.272 211.069,258.146 211.398 C 258.019 211.726,257.764 211.902,257.579 211.787 C 257.394 211.672,257.312 211.943,257.398 212.389 C 257.484 212.835,257.384 213.200,257.177 213.200 C 256.461 213.200,256.802 214.076,257.600 214.284 C 258.469 214.511,258.715 215.596,257.900 215.606 C 257.530 215.611,257.541 215.702,257.940 215.955 C 258.380 216.233,258.345 216.456,257.751 217.148 C 256.992 218.035,255.600 218.312,255.600 217.576 C 255.600 217.343,255.444 217.249,255.254 217.367 C 255.064 217.484,254.819 215.882,254.711 213.806 C 254.586 211.418,254.292 209.695,253.911 209.113 C 253.530 208.532,253.200 206.598,253.013 203.854 C 252.830 201.173,252.444 198.881,252.002 197.857 C 251.572 196.859,251.193 194.667,251.049 192.345 C 250.800 188.331,250.560 187.200,249.957 187.200 C 249.341 187.200,249.568 184.434,250.245 183.700 C 253.252 180.435,254.800 178.534,254.800 178.107 C 254.800 177.828,255.074 177.600,255.410 177.600 C 255.745 177.600,256.191 177.150,256.400 176.600 C 256.609 176.050,256.969 175.600,257.200 175.600 C 257.431 175.600,257.791 175.150,258.000 174.600 C 258.209 174.050,258.536 173.600,258.726 173.600 C 258.916 173.600,259.289 173.124,259.554 172.541 C 261.309 168.689,262.317 168.888,262.334 173.092 M236.800 174.400 C 236.800 174.982,236.533 175.200,235.824 175.200 C 234.539 175.200,234.174 175.851,235.163 176.380 C 236.258 176.966,236.800 176.904,236.800 176.191 C 236.800 175.857,237.250 175.378,237.800 175.127 C 238.350 174.877,238.800 174.430,238.800 174.136 C 238.800 173.831,238.369 173.600,237.800 173.600 C 237.067 173.600,236.800 173.813,236.800 174.400 M228.486 177.340 C 228.641 178.151,228.514 178.274,227.562 178.236 C 226.054 178.175,225.645 177.649,226.577 176.967 C 227.693 176.151,228.281 176.266,228.486 177.340 M230.998 177.603 C 230.861 177.824,231.019 178.109,231.349 178.236 C 231.679 178.363,231.849 178.729,231.726 179.049 C 231.561 179.478,231.356 179.351,230.951 178.571 C 230.289 177.294,230.280 177.200,230.824 177.200 C 231.057 177.200,231.135 177.381,230.998 177.603 M221.561 179.466 C 220.990 179.821,220.196 180.716,219.798 181.456 C 219.400 182.195,218.943 182.800,218.784 182.800 C 218.276 182.800,218.017 184.538,218.447 185.057 C 218.909 185.614,220.800 184.995,220.800 184.287 C 220.800 184.075,221.115 184.146,221.500 184.444 C 222.070 184.885,222.058 184.820,221.438 184.093 C 220.605 183.116,220.186 182.910,220.641 183.700 C 220.799 183.975,220.774 184.060,220.586 183.888 C 219.944 183.304,220.073 182.431,220.838 182.188 C 221.257 182.055,221.600 181.707,221.600 181.416 C 221.600 181.124,221.845 180.792,222.144 180.677 C 222.698 180.464,223.342 178.791,222.863 178.811 C 222.718 178.816,222.132 179.112,221.561 179.466 M228.174 180.713 C 228.009 181.091,227.912 181.565,227.959 181.768 C 228.006 181.970,227.767 181.905,227.427 181.622 C 226.789 181.093,226.965 180.208,227.628 180.617 C 227.832 180.744,228.014 180.432,228.032 179.924 C 228.049 179.416,228.156 179.231,228.269 179.513 C 228.383 179.795,228.340 180.335,228.174 180.713 M227.800 184.767 C 227.800 185.647,226.571 185.610,226.505 184.728 C 226.465 184.197,226.661 183.992,227.123 184.081 C 227.495 184.152,227.800 184.461,227.800 184.767 M234.400 185.424 C 234.400 186.004,234.227 186.340,234.000 186.200 C 233.780 186.064,233.600 185.603,233.600 185.176 C 233.600 184.749,233.780 184.400,234.000 184.400 C 234.220 184.400,234.400 184.861,234.400 185.424 M217.927 187.900 C 217.835 188.697,217.546 189.036,216.877 189.131 C 216.369 189.203,216.024 189.473,216.110 189.731 C 216.357 190.473,217.686 190.547,218.081 189.841 C 218.278 189.488,218.682 189.200,218.977 189.200 C 219.731 189.200,220.105 188.008,219.558 187.349 C 218.821 186.461,218.063 186.717,217.927 187.900 M221.621 188.978 C 220.768 189.886,220.760 189.950,221.462 190.312 C 222.511 190.852,223.200 190.487,223.200 189.390 C 223.200 188.030,222.647 187.886,221.621 188.978 M231.200 189.000 C 231.200 189.330,230.930 189.600,230.600 189.600 C 229.975 189.600,229.806 189.127,230.267 188.667 C 230.727 188.206,231.200 188.375,231.200 189.000 M221.389 194.792 C 221.533 195.934,220.617 196.850,220.295 195.886 C 220.023 195.068,217.769 195.213,217.706 196.052 C 217.676 196.455,217.819 196.888,218.025 197.016 C 218.231 197.143,218.400 197.044,218.400 196.795 C 218.400 196.533,218.665 196.607,219.028 196.971 C 219.747 197.689,220.493 197.415,221.892 195.919 C 222.770 194.980,222.772 194.954,222.014 194.305 C 221.277 193.674,221.250 193.695,221.389 194.792 M209.200 196.424 C 209.200 196.631,208.930 196.800,208.600 196.800 C 207.981 196.800,207.805 196.328,208.256 195.878 C 208.575 195.558,209.200 195.919,209.200 196.424 M216.200 202.000 C 216.064 202.220,216.128 202.400,216.343 202.400 C 216.558 202.400,216.824 202.175,216.935 201.900 C 217.046 201.625,217.151 201.895,217.168 202.500 C 217.207 203.848,217.116 203.854,215.762 202.600 C 214.714 201.629,214.708 201.600,215.565 201.600 C 216.051 201.600,216.336 201.780,216.200 202.000 M242.646 204.578 C 242.506 205.945,242.132 208.060,241.815 209.277 C 241.498 210.495,241.052 212.977,240.824 214.794 C 240.597 216.611,240.148 219.020,239.827 220.149 C 239.093 222.725,238.089 226.981,237.374 230.545 C 237.071 232.055,236.659 233.495,236.458 233.745 C 236.258 233.995,235.891 235.162,235.643 236.338 C 235.395 237.514,234.924 238.859,234.596 239.327 C 234.268 239.795,234.000 240.436,234.000 240.750 C 234.000 242.490,229.142 250.797,226.864 252.953 L 225.645 254.107 224.472 253.353 C 222.838 252.304,221.462 250.561,219.814 247.454 C 217.291 242.698,215.600 239.083,215.600 238.446 C 215.600 238.185,215.348 237.573,215.039 237.086 C 214.731 236.599,214.357 235.570,214.209 234.800 C 214.061 234.030,213.611 232.500,213.208 231.400 C 212.805 230.300,211.984 227.832,211.384 225.915 C 210.350 222.617,210.247 222.454,209.450 222.880 C 208.562 223.355,204.016 226.819,202.810 227.940 C 202.419 228.303,201.067 229.497,199.805 230.592 L 197.512 232.585 197.763 234.727 C 197.902 235.905,198.260 237.348,198.559 237.934 C 198.859 238.521,199.224 239.630,199.371 240.400 C 199.651 241.868,200.632 244.411,202.242 247.840 C 202.769 248.962,203.200 250.166,203.200 250.516 C 203.200 250.866,203.395 251.273,203.633 251.420 C 203.871 251.568,204.409 252.433,204.828 253.344 C 205.927 255.733,209.727 261.215,211.465 262.921 C 219.487 270.789,228.948 271.661,236.724 265.249 C 238.687 263.630,242.687 258.997,243.328 257.600 C 243.480 257.270,244.142 256.100,244.800 255.000 C 245.458 253.900,246.110 252.730,246.248 252.400 C 246.386 252.070,246.927 250.833,247.450 249.652 C 247.972 248.470,248.400 247.339,248.400 247.139 C 248.400 246.938,248.698 246.105,249.062 245.287 C 251.461 239.894,252.128 234.904,250.933 231.301 C 250.441 229.816,250.029 228.223,250.019 227.761 C 250.008 227.300,249.728 226.378,249.396 225.712 C 249.063 225.045,248.600 223.464,248.366 222.197 C 248.131 220.930,247.758 219.423,247.537 218.847 C 247.315 218.271,246.887 216.450,246.586 214.800 C 246.285 213.150,245.764 210.630,245.428 209.200 C 245.092 207.770,244.813 205.957,244.808 205.172 C 244.803 204.175,244.514 203.495,243.850 202.919 L 242.901 202.093 242.646 204.578 M261.249 210.547 C 260.892 211.288,260.538 211.732,260.462 211.534 C 260.335 211.200,261.445 209.200,261.759 209.200 C 261.836 209.200,261.607 209.806,261.249 210.547 M257.016 221.077 C 256.870 221.659,256.924 221.970,257.147 221.833 C 257.359 221.702,257.434 221.949,257.317 222.395 C 256.982 223.678,256.400 222.890,256.400 221.153 C 256.400 220.108,256.550 219.646,256.832 219.820 C 257.073 219.969,257.155 220.527,257.016 221.077 M191.440 236.598 C 190.592 237.174,189.661 237.860,189.373 238.123 C 189.084 238.385,188.200 239.050,187.407 239.600 C 185.484 240.936,183.136 242.673,182.415 243.295 C 182.093 243.573,181.533 243.980,181.172 244.200 C 180.810 244.420,179.740 245.140,178.793 245.800 C 176.323 247.523,175.186 248.267,173.600 249.204 C 172.830 249.658,171.480 250.457,170.600 250.978 C 169.720 251.500,166.930 252.946,164.400 254.192 C 161.870 255.438,159.530 256.625,159.200 256.831 C 158.870 257.037,158.330 257.317,158.000 257.453 C 157.670 257.590,156.500 258.105,155.400 258.598 C 154.300 259.090,152.910 259.610,152.312 259.752 C 149.074 260.519,150.324 262.502,156.742 266.781 C 163.058 270.992,172.144 270.297,177.618 265.183 C 178.315 264.532,178.973 264.000,179.081 264.000 C 179.353 264.000,182.898 260.031,183.396 259.170 C 183.618 258.785,184.385 257.636,185.100 256.615 C 185.815 255.595,186.400 254.624,186.400 254.458 C 186.400 254.291,186.850 253.545,187.400 252.800 C 187.950 252.055,188.400 251.160,188.400 250.811 C 188.400 250.463,188.712 249.733,189.094 249.189 C 190.291 247.484,193.474 237.022,193.120 235.959 C 193.045 235.735,192.289 236.022,191.440 236.598" fill="url(#darkGreen)" fill-rule="evenodd" filter="url(#softGlow)"/>
    <path d="M332.189 43.751 C 331.755 44.054,330.590 44.579,329.600 44.917 C 328.610 45.256,327.260 45.817,326.600 46.164 C 325.940 46.511,325.197 46.796,324.948 46.798 C 324.529 46.800,322.082 47.828,318.174 49.644 C 317.279 50.060,316.266 50.400,315.923 50.400 C 315.579 50.400,315.089 50.652,314.833 50.961 C 314.577 51.269,313.880 51.637,313.284 51.777 C 312.688 51.918,311.435 52.386,310.500 52.817 C 306.442 54.686,305.342 55.155,304.400 55.417 C 303.850 55.570,303.130 55.922,302.800 56.200 C 302.470 56.478,301.750 56.829,301.200 56.980 C 300.650 57.131,299.660 57.507,299.000 57.815 C 298.340 58.123,296.450 58.935,294.800 59.618 C 293.150 60.302,291.037 61.208,290.104 61.631 C 289.172 62.054,288.272 62.400,288.104 62.399 C 287.937 62.398,287.080 62.749,286.200 63.178 C 282.229 65.116,280.206 66.000,279.744 66.000 C 278.279 66.000,277.996 67.725,279.322 68.571 C 280.036 69.027,280.975 69.630,281.410 69.911 C 281.844 70.193,282.723 70.733,283.363 71.111 C 284.002 71.490,284.857 72.115,285.263 72.500 C 285.668 72.885,286.152 73.200,286.338 73.200 C 286.524 73.200,287.002 73.560,287.400 74.000 C 287.798 74.440,288.302 74.800,288.521 74.800 C 288.739 74.800,289.903 75.475,291.108 76.300 C 292.312 77.125,293.771 78.083,294.349 78.430 C 296.362 79.635,296.006 81.211,292.992 84.434 C 292.667 84.782,292.400 85.185,292.400 85.329 C 292.400 85.473,291.590 86.656,290.600 87.958 C 289.610 89.260,288.800 90.482,288.800 90.673 C 288.800 90.865,288.485 91.315,288.100 91.672 C 287.715 92.030,286.950 92.984,286.400 93.792 C 285.850 94.600,285.040 95.693,284.600 96.221 C 284.160 96.749,283.350 97.820,282.800 98.600 C 281.797 100.024,279.832 102.698,276.775 106.800 C 271.453 113.941,270.000 115.961,270.000 116.222 C 270.000 116.383,269.190 117.462,268.200 118.621 C 267.210 119.779,266.400 120.918,266.400 121.150 C 266.400 121.382,266.040 121.765,265.600 122.000 C 265.160 122.235,264.800 122.612,264.800 122.837 C 264.800 123.063,264.072 124.181,263.182 125.323 C 259.495 130.055,247.181 145.447,246.614 146.034 C 246.276 146.382,246.000 146.811,246.000 146.988 C 246.000 147.164,245.595 147.724,245.100 148.232 C 243.874 149.490,243.195 150.293,241.579 152.393 C 239.979 154.474,239.495 155.069,238.400 156.300 C 237.960 156.795,237.600 157.309,237.600 157.441 C 237.600 157.574,236.700 158.760,235.600 160.076 C 234.500 161.393,233.600 162.634,233.600 162.835 C 233.600 163.036,233.342 163.200,233.027 163.200 C 232.712 163.200,232.340 163.560,232.200 164.000 C 232.060 164.441,231.598 164.987,231.173 165.214 C 230.748 165.442,230.400 165.880,230.400 166.187 C 230.400 166.495,230.040 166.860,229.600 167.000 C 229.160 167.140,228.800 167.602,228.800 168.027 C 228.800 168.533,228.524 168.800,228.000 168.800 C 227.526 168.800,227.200 169.067,227.200 169.454 C 227.200 169.814,226.795 170.494,226.300 170.965 C 225.174 172.037,221.846 175.976,221.667 176.448 C 221.593 176.642,221.278 176.800,220.967 176.800 C 220.655 176.800,220.400 176.946,220.400 177.123 C 220.400 177.301,219.095 178.721,217.500 180.278 C 207.995 189.559,204.400 193.163,204.400 193.411 C 204.400 194.019,201.396 196.400,200.622 196.406 C 199.940 196.411,199.902 196.480,200.400 196.812 C 201.693 197.675,205.882 197.127,205.770 196.110 C 205.712 195.577,205.988 194.974,206.432 194.662 C 206.852 194.369,207.061 193.994,206.897 193.831 C 206.734 193.667,206.780 193.570,207.000 193.614 C 208.119 193.840,209.200 193.538,209.200 193.000 C 209.200 192.670,209.399 192.400,209.643 192.400 C 209.886 192.400,209.982 192.130,209.855 191.800 C 209.706 191.410,209.866 191.200,210.313 191.200 C 210.773 191.200,211.020 191.548,211.061 192.253 C 211.094 192.831,211.364 193.458,211.661 193.646 C 212.037 193.884,211.874 193.990,211.124 193.994 C 210.001 194.000,209.109 194.836,209.932 195.111 C 210.192 195.197,210.303 195.433,210.179 195.634 C 210.055 195.835,210.143 196.000,210.376 196.000 C 210.609 196.000,210.800 195.694,210.800 195.320 C 210.800 194.791,210.907 194.747,211.280 195.120 C 211.959 195.799,212.276 195.719,212.515 194.805 C 212.629 194.367,213.191 193.831,213.764 193.614 C 214.337 193.396,214.760 193.079,214.703 192.909 C 214.598 192.594,214.921 192.400,215.553 192.400 C 216.219 192.400,216.344 193.992,215.706 194.348 C 215.253 194.602,215.164 195.002,215.375 195.842 C 215.624 196.836,215.714 196.896,216.051 196.294 C 216.265 195.912,216.656 195.603,216.920 195.606 C 217.241 195.610,217.217 195.728,216.849 195.961 C 216.540 196.157,216.430 196.525,216.600 196.800 C 216.766 197.069,216.676 197.429,216.400 197.600 C 215.746 198.004,216.310 198.920,217.040 198.640 C 217.348 198.522,217.600 198.610,217.600 198.836 C 217.600 199.062,217.761 199.148,217.958 199.026 C 218.655 198.595,218.813 200.123,218.148 200.858 C 217.513 201.559,217.524 201.600,218.356 201.600 C 218.971 201.600,219.200 201.390,219.118 200.900 C 219.039 200.433,219.299 200.158,219.900 200.072 C 220.395 200.002,220.800 199.670,220.800 199.335 C 220.800 198.999,221.160 198.631,221.600 198.516 C 222.040 198.401,222.400 198.053,222.400 197.743 C 222.400 197.434,222.850 197.009,223.400 196.800 C 223.950 196.591,224.400 196.166,224.400 195.857 C 224.400 195.547,224.760 195.199,225.200 195.084 C 225.640 194.969,226.000 194.600,226.000 194.264 C 226.000 193.929,226.351 193.543,226.780 193.406 C 227.208 193.270,227.670 192.808,227.806 192.380 C 227.943 191.951,228.312 191.600,228.627 191.600 C 228.942 191.600,229.200 191.310,229.200 190.957 C 229.200 190.178,227.403 190.499,226.325 191.470 C 225.954 191.805,225.459 191.960,225.225 191.816 C 224.978 191.662,224.800 191.897,224.800 192.376 C 224.800 193.259,223.834 193.502,223.362 192.738 C 223.172 192.431,223.254 192.386,223.606 192.604 C 223.987 192.839,224.067 192.750,223.888 192.286 C 223.725 191.859,223.907 191.557,224.426 191.392 C 224.858 191.255,225.091 190.948,224.944 190.709 C 224.791 190.461,224.862 190.391,225.111 190.545 C 225.349 190.692,225.642 190.656,225.760 190.465 C 226.069 189.965,223.949 187.720,223.000 187.542 C 222.042 187.362,221.676 185.643,222.462 185.014 C 223.590 184.112,223.940 183.007,223.353 182.204 C 222.729 181.350,222.604 180.232,223.172 180.583 C 223.377 180.709,223.658 180.630,223.796 180.407 C 223.934 180.183,223.857 180.000,223.624 180.000 C 223.391 180.000,223.200 179.845,223.200 179.655 C 223.200 179.466,223.695 179.405,224.300 179.520 C 225.299 179.710,225.348 179.666,224.835 179.046 C 224.399 178.518,224.199 178.478,223.957 178.870 C 223.722 179.251,223.574 179.199,223.368 178.662 C 223.213 178.256,223.315 177.741,223.606 177.473 C 224.007 177.102,224.048 177.121,223.797 177.562 C 223.582 177.938,223.629 178.029,223.938 177.838 C 224.192 177.681,224.400 177.333,224.400 177.065 C 224.400 176.797,224.959 176.088,225.641 175.489 C 226.324 174.890,226.767 174.400,226.627 174.400 C 226.487 174.400,226.567 174.035,226.806 173.589 C 227.045 173.143,227.392 172.872,227.578 172.986 C 227.764 173.101,228.019 172.926,228.146 172.598 C 228.411 171.905,229.533 171.824,230.400 172.434 C 230.860 172.758,230.697 172.820,229.700 172.698 C 228.460 172.546,228.400 172.600,228.400 173.882 C 228.400 175.458,228.945 175.769,231.700 175.759 C 233.809 175.751,233.865 175.792,232.978 176.679 C 232.415 177.242,232.434 177.385,233.178 178.176 C 233.630 178.658,234.000 179.265,234.000 179.526 C 234.000 180.161,234.125 180.136,235.777 179.160 C 236.560 178.699,237.200 178.069,237.200 177.760 C 237.200 177.432,237.607 177.200,238.182 177.200 L 239.164 177.200 238.164 178.200 C 237.614 178.750,236.992 179.200,236.782 179.200 C 236.572 179.200,236.400 179.830,236.400 180.600 C 236.400 181.510,236.589 182.000,236.941 182.000 C 237.737 182.000,242.072 177.240,241.750 176.719 C 241.581 176.446,241.660 176.390,241.957 176.573 C 242.409 176.853,246.800 172.666,246.800 171.955 C 246.800 171.789,247.160 171.540,247.600 171.400 C 248.040 171.260,248.400 170.883,248.400 170.560 C 248.400 170.238,248.684 169.866,249.031 169.733 C 249.377 169.600,249.823 169.065,250.021 168.545 C 250.218 168.025,250.655 167.600,250.990 167.600 C 251.326 167.600,251.600 167.429,251.600 167.221 C 251.600 167.012,252.050 166.356,252.600 165.762 C 253.150 165.169,253.600 164.529,253.600 164.342 C 253.600 164.154,253.870 164.000,254.200 164.000 C 254.530 164.000,254.800 163.821,254.800 163.602 C 254.800 163.383,255.678 162.258,256.750 161.102 C 259.001 158.676,260.271 157.216,261.400 155.759 C 261.840 155.191,262.477 154.428,262.815 154.063 C 264.366 152.389,269.200 146.475,269.200 146.251 C 269.200 146.113,269.515 145.658,269.900 145.240 C 271.317 143.702,272.621 142.135,273.400 141.032 C 273.840 140.409,274.605 139.401,275.100 138.792 C 275.595 138.183,276.000 137.583,276.000 137.460 C 276.000 137.336,276.718 136.462,277.595 135.517 C 278.472 134.573,279.192 133.665,279.195 133.500 C 279.198 133.335,279.515 132.879,279.900 132.487 C 280.285 132.094,281.140 130.980,281.800 130.011 C 282.460 129.042,283.360 127.875,283.800 127.418 C 284.240 126.960,284.960 126.075,285.400 125.451 C 285.840 124.827,287.410 122.760,288.888 120.858 C 291.916 116.964,292.309 116.449,293.969 114.200 C 294.618 113.320,295.386 112.324,295.675 111.987 C 295.964 111.649,296.737 110.569,297.394 109.587 C 298.733 107.583,300.871 104.705,301.246 104.400 C 301.381 104.290,301.619 103.795,301.773 103.300 C 301.928 102.805,302.204 102.400,302.387 102.400 C 302.571 102.400,303.144 101.734,303.660 100.919 C 304.177 100.104,304.870 99.051,305.200 98.579 C 305.530 98.106,306.160 97.200,306.600 96.566 C 307.040 95.932,307.715 95.095,308.100 94.707 C 308.485 94.318,308.800 93.739,308.800 93.420 C 308.800 93.101,309.044 92.696,309.342 92.520 C 309.639 92.344,310.096 91.795,310.356 91.300 C 311.221 89.652,312.930 90.218,315.797 93.100 C 316.289 93.595,316.895 94.000,317.142 94.000 C 317.390 94.000,317.818 94.360,318.093 94.800 C 318.368 95.240,318.748 95.600,318.938 95.600 C 319.129 95.600,319.850 96.048,320.542 96.596 C 321.234 97.145,322.160 97.864,322.600 98.194 C 323.040 98.525,324.901 99.967,326.735 101.398 C 331.280 104.944,330.986 105.258,331.378 96.451 C 331.499 93.729,331.775 89.949,331.990 88.051 C 332.206 86.153,332.571 80.100,332.802 74.600 C 333.032 69.100,333.386 63.340,333.589 61.800 C 333.791 60.260,334.083 55.445,334.239 51.100 C 334.547 42.477,334.460 42.165,332.189 43.751 M220.000 103.057 C 218.570 103.405,217.341 103.848,217.268 104.040 C 217.196 104.233,216.386 104.725,215.468 105.135 C 213.380 106.066,209.776 109.716,207.697 113.005 C 206.832 114.374,204.400 119.448,204.400 119.885 C 204.400 120.114,204.130 120.526,203.800 120.800 C 203.470 121.074,203.200 121.579,203.200 121.923 C 203.200 122.266,202.858 123.279,202.440 124.174 C 200.195 128.981,197.212 140.308,196.197 147.880 C 195.896 150.123,195.471 152.294,195.252 152.703 C 194.204 154.661,194.274 160.125,195.365 161.578 C 195.934 162.335,196.400 163.150,196.400 163.389 C 196.400 163.627,196.760 164.130,197.200 164.507 C 197.640 164.884,198.000 165.526,198.000 165.934 C 198.000 166.342,198.342 166.986,198.760 167.364 C 199.179 167.743,199.637 168.671,199.779 169.426 C 199.920 170.182,200.201 170.800,200.402 170.800 C 200.603 170.800,200.991 171.565,201.264 172.500 C 201.537 173.435,201.993 174.344,202.278 174.519 C 202.563 174.694,202.911 175.556,203.052 176.433 C 203.524 179.387,205.954 179.255,205.987 176.274 C 205.994 175.654,206.188 174.796,206.418 174.367 C 206.647 173.938,207.031 171.475,207.271 168.894 C 207.511 166.312,207.953 163.801,208.253 163.314 C 208.554 162.827,208.800 161.441,208.800 160.234 C 208.800 157.623,209.517 154.000,210.033 154.000 C 210.235 154.000,210.403 153.415,210.406 152.700 C 210.410 151.985,210.693 150.320,211.036 149.000 C 211.379 147.680,211.919 145.430,212.235 144.000 C 212.552 142.570,213.066 140.770,213.378 140.000 C 213.691 139.230,214.049 137.970,214.175 137.200 C 214.301 136.430,214.656 135.317,214.964 134.727 C 215.273 134.137,215.649 133.057,215.802 132.327 C 216.067 131.053,216.803 129.232,218.439 125.800 C 218.859 124.920,219.202 124.020,219.202 123.800 C 219.201 123.580,219.606 122.911,220.100 122.313 C 220.595 121.715,221.527 120.503,222.171 119.620 C 224.959 115.799,229.766 117.957,232.149 124.100 C 232.383 124.705,232.694 125.200,232.839 125.200 C 232.984 125.200,233.318 125.785,233.581 126.500 C 233.844 127.215,234.382 128.520,234.776 129.400 C 235.704 131.473,236.754 134.557,237.262 136.700 C 237.998 139.806,239.051 139.996,241.400 137.446 C 242.500 136.252,244.982 133.565,246.917 131.473 C 250.622 127.467,250.936 126.616,249.377 124.800 C 249.094 124.470,248.742 123.718,248.595 123.129 C 248.448 122.541,247.984 121.748,247.564 121.367 C 247.144 120.987,246.800 120.386,246.800 120.031 C 246.800 119.676,246.350 118.723,245.800 117.914 C 245.250 117.105,244.800 116.253,244.800 116.021 C 244.800 115.790,244.611 115.600,244.381 115.600 C 244.150 115.600,243.740 115.073,243.469 114.429 C 242.565 112.280,235.346 105.200,234.057 105.200 C 233.865 105.200,233.272 104.857,232.740 104.439 C 230.547 102.714,224.226 102.028,220.000 103.057 M259.282 172.984 C 258.658 173.653,258.030 174.515,257.886 174.900 C 257.743 175.285,257.435 175.600,257.203 175.600 C 256.970 175.600,256.609 176.050,256.400 176.600 C 256.191 177.150,255.745 177.600,255.410 177.600 C 255.074 177.600,254.800 177.828,254.800 178.107 C 254.800 178.534,253.252 180.435,250.245 183.700 C 249.568 184.434,249.341 187.200,249.957 187.200 C 250.560 187.200,250.800 188.331,251.049 192.345 C 251.193 194.667,251.572 196.859,252.002 197.857 C 252.444 198.881,252.830 201.173,253.013 203.854 C 253.200 206.598,253.530 208.532,253.911 209.113 C 254.292 209.695,254.586 211.418,254.711 213.806 C 254.819 215.882,255.064 217.484,255.254 217.367 C 255.444 217.249,255.600 217.343,255.600 217.576 C 255.600 218.312,256.992 218.035,257.751 217.148 C 258.345 216.456,258.380 216.233,257.940 215.955 C 257.541 215.702,257.530 215.611,257.900 215.606 C 258.715 215.596,258.469 214.511,257.600 214.284 C 256.802 214.076,256.461 213.200,257.177 213.200 C 257.384 213.200,257.484 212.835,257.398 212.389 C 257.312 211.943,257.394 211.672,257.579 211.787 C 257.764 211.902,258.019 211.726,258.146 211.398 C 258.272 211.069,258.571 210.800,258.811 210.800 C 259.051 210.800,259.162 210.937,259.059 211.105 C 258.955 211.273,259.099 211.837,259.378 212.359 C 260.078 213.666,260.254 213.026,259.973 210.200 C 259.842 208.880,259.704 208.215,259.667 208.722 C 259.604 209.587,259.513 209.550,258.202 208.122 C 256.239 205.985,256.394 204.355,258.600 203.933 C 259.137 203.831,259.363 203.514,259.288 202.970 C 259.159 202.030,261.531 200.663,262.380 201.188 C 262.660 201.361,263.231 201.412,263.650 201.303 C 264.250 201.146,264.354 201.256,264.138 201.817 C 263.949 202.309,264.011 202.441,264.335 202.240 C 265.066 201.788,265.798 202.855,265.817 204.400 C 265.842 206.569,266.278 208.838,266.762 209.322 C 267.611 210.171,267.320 203.063,266.460 201.954 C 265.867 201.189,265.670 199.987,265.468 195.888 C 265.329 193.077,265.027 190.424,264.796 189.993 C 264.566 189.563,264.127 186.913,263.821 184.105 C 263.515 181.297,263.074 178.190,262.841 177.200 C 262.608 176.210,262.314 174.557,262.188 173.526 C 261.911 171.260,261.043 171.098,259.282 172.984 M238.800 174.136 C 238.800 174.430,238.350 174.877,237.800 175.127 C 237.250 175.378,236.800 175.857,236.800 176.191 C 236.800 176.904,236.258 176.966,235.163 176.380 C 234.174 175.851,234.539 175.200,235.824 175.200 C 236.533 175.200,236.800 174.982,236.800 174.400 C 236.800 173.813,237.067 173.600,237.800 173.600 C 238.369 173.600,238.800 173.831,238.800 174.136 M226.577 176.967 C 225.645 177.649,226.054 178.175,227.562 178.236 C 228.514 178.274,228.641 178.151,228.486 177.340 C 228.281 176.266,227.693 176.151,226.577 176.967 M230.400 177.354 C 230.400 178.091,231.536 179.543,231.726 179.049 C 231.849 178.729,231.679 178.363,231.349 178.236 C 231.019 178.109,230.861 177.824,230.998 177.603 C 231.135 177.381,231.057 177.200,230.824 177.200 C 230.591 177.200,230.400 177.269,230.400 177.354 M222.907 179.634 C 222.787 180.092,222.444 180.562,222.144 180.677 C 221.845 180.792,221.600 181.124,221.600 181.416 C 221.600 181.707,221.257 182.055,220.838 182.188 C 220.073 182.431,219.944 183.304,220.586 183.888 C 220.774 184.060,220.799 183.975,220.641 183.700 C 220.186 182.910,220.605 183.116,221.438 184.093 C 222.058 184.820,222.070 184.885,221.500 184.444 C 221.115 184.146,220.800 184.075,220.800 184.287 C 220.800 184.995,218.909 185.614,218.447 185.057 C 218.017 184.538,218.276 182.800,218.784 182.800 C 218.943 182.800,219.400 182.195,219.798 181.456 C 220.432 180.278,222.096 178.842,222.863 178.811 C 223.007 178.805,223.027 179.175,222.907 179.634 M228.032 179.924 C 228.014 180.432,227.832 180.744,227.628 180.617 C 226.965 180.208,226.789 181.093,227.427 181.622 C 227.767 181.905,228.006 181.970,227.959 181.768 C 227.912 181.565,228.009 181.091,228.174 180.713 C 228.340 180.335,228.383 179.795,228.269 179.513 C 228.156 179.231,228.049 179.416,228.032 179.924 M226.505 184.728 C 226.539 185.183,226.820 185.468,227.182 185.415 C 228.017 185.292,227.971 184.244,227.123 184.081 C 226.661 183.992,226.465 184.197,226.505 184.728 M233.600 185.176 C 233.600 185.603,233.780 186.064,234.000 186.200 C 234.227 186.340,234.400 186.004,234.400 185.424 C 234.400 184.861,234.220 184.400,234.000 184.400 C 233.780 184.400,233.600 184.749,233.600 185.176 M219.558 187.349 C 220.105 188.008,219.731 189.200,218.977 189.200 C 218.682 189.200,218.278 189.488,218.081 189.841 C 217.686 190.547,216.357 190.473,216.110 189.731 C 216.024 189.473,216.369 189.203,216.877 189.131 C 217.546 189.036,217.835 188.697,217.927 187.900 C 218.063 186.717,218.821 186.461,219.558 187.349 M223.200 189.390 C 223.200 190.487,222.511 190.852,221.462 190.312 C 220.760 189.950,220.768 189.886,221.621 188.978 C 222.647 187.886,223.200 188.030,223.200 189.390 M230.267 188.667 C 229.806 189.127,229.975 189.600,230.600 189.600 C 230.930 189.600,231.200 189.330,231.200 189.000 C 231.200 188.375,230.727 188.206,230.267 188.667 M221.892 195.919 C 220.493 197.415,219.747 197.689,219.028 196.971 C 218.665 196.607,218.400 196.533,218.400 196.795 C 218.400 197.044,218.231 197.143,218.025 197.016 C 217.819 196.888,217.676 196.455,217.706 196.052 C 217.769 195.213,220.023 195.068,220.295 195.886 C 220.617 196.850,221.533 195.934,221.389 194.792 C 221.250 193.695,221.277 193.674,222.014 194.305 C 222.772 194.954,222.770 194.980,221.892 195.919 M208.256 195.878 C 207.805 196.328,207.981 196.800,208.600 196.800 C 208.930 196.800,209.200 196.631,209.200 196.424 C 209.200 195.919,208.575 195.558,208.256 195.878 M215.762 202.600 C 217.116 203.854,217.207 203.848,217.168 202.500 C 217.151 201.895,217.046 201.625,216.935 201.900 C 216.824 202.175,216.558 202.400,216.343 202.400 C 216.128 202.400,216.064 202.220,216.200 202.000 C 216.336 201.780,216.051 201.600,215.565 201.600 C 214.708 201.600,214.714 201.629,215.762 202.600 M260.972 210.187 C 260.616 210.730,260.387 211.336,260.462 211.534 C 260.538 211.732,260.892 211.288,261.249 210.547 C 262.014 208.962,261.884 208.794,260.972 210.187 M256.400 221.153 C 256.400 222.890,256.982 223.678,257.317 222.395 C 257.434 221.949,257.359 221.702,257.147 221.833 C 256.924 221.970,256.870 221.659,257.016 221.077 C 257.155 220.527,257.073 219.969,256.832 219.820 C 256.550 219.646,256.400 220.108,256.400 221.153" fill="url(#lightGreen)" fill-rule="evenodd" filter="url(#softGlow)"/>
    <!-- Leftmost hump (slightly shortened) -->
    <g transform="matrix(1 0 0 0.85 0 36.750)">
      <path d="M103.800 169.392 C 92.560 171.865,79.835 191.238,75.814 212.000 C 75.665 212.770,75.202 214.840,74.785 216.600 C 73.204 223.278,71.546 233.864,70.922 241.259 C 70.720 243.663,70.778 243.960,71.528 244.361 C 72.560 244.914,86.211 244.254,86.982 243.615 C 87.471 243.209,88.465 238.823,89.027 234.600 C 92.285 210.077,103.425 185.046,110.270 186.869 C 113.112 187.626,119.175 196.777,122.016 204.600 C 122.416 205.700,123.304 208.130,123.990 210.000 C 125.738 214.766,126.961 218.418,128.209 222.600 C 130.977 231.875,131.126 232.034,135.346 230.203 C 145.803 225.668,146.244 225.332,145.642 222.369 C 144.184 215.200,141.337 205.479,139.207 200.400 C 138.515 198.750,137.706 196.770,137.410 196.000 C 136.875 194.611,133.635 188.136,132.706 186.600 C 123.891 172.022,115.243 166.874,103.800 169.392 M116.283 171.220 C 119.779 172.779,126.400 178.246,126.400 179.574 C 126.400 179.805,126.760 180.218,127.200 180.493 C 127.640 180.768,128.000 181.141,128.000 181.323 C 128.000 181.505,128.450 182.243,129.000 182.964 C 129.550 183.686,130.000 184.424,130.000 184.606 C 130.000 184.788,130.287 185.254,130.637 185.641 C 131.354 186.433,132.125 187.818,133.955 191.600 C 134.647 193.030,135.570 194.866,136.007 195.679 C 136.443 196.493,136.800 197.400,136.800 197.695 C 136.800 197.990,137.150 198.916,137.577 199.754 C 138.004 200.592,138.475 201.846,138.623 202.539 C 138.771 203.233,139.133 204.250,139.428 204.800 C 139.722 205.350,140.138 206.610,140.352 207.600 C 140.565 208.590,141.016 210.120,141.353 211.000 C 142.022 212.749,142.225 217.600,141.629 217.600 C 141.192 217.600,140.000 216.471,140.000 216.057 C 140.000 215.899,139.636 215.743,139.191 215.709 C 138.747 215.676,138.487 215.818,138.615 216.024 C 138.743 216.231,138.567 216.400,138.224 216.400 C 137.881 216.400,137.253 216.715,136.829 217.100 C 135.559 218.252,134.846 218.800,134.617 218.800 C 134.159 218.800,134.428 217.674,135.000 217.200 C 135.330 216.926,135.600 216.364,135.600 215.951 C 135.600 215.538,135.791 215.200,136.024 215.200 C 136.257 215.200,136.343 215.031,136.215 214.825 C 136.088 214.618,136.233 214.303,136.539 214.125 C 136.855 213.939,136.988 213.506,136.847 213.114 C 136.638 212.534,136.337 212.672,134.885 214.012 C 133.472 215.316,133.240 215.727,133.568 216.340 C 133.913 216.984,133.747 217.149,132.327 217.575 C 130.352 218.166,130.015 217.836,130.006 215.300 C 130.003 214.305,129.812 213.600,129.547 213.600 C 129.250 213.600,129.168 214.149,129.309 215.200 C 129.491 216.553,129.413 216.800,128.805 216.800 C 128.058 216.800,127.600 216.048,127.600 214.821 C 127.600 214.429,127.257 213.671,126.837 213.138 C 126.418 212.605,125.945 211.306,125.787 210.252 C 125.629 209.199,125.273 208.250,124.997 208.143 C 124.721 208.037,124.383 207.254,124.247 206.404 C 124.111 205.553,123.746 204.603,123.435 204.292 C 123.124 203.982,122.640 202.960,122.359 202.022 C 122.078 201.084,121.626 200.231,121.354 200.127 C 121.082 200.023,120.740 199.232,120.595 198.369 C 120.449 197.506,120.110 196.665,119.841 196.500 C 119.573 196.335,119.117 195.615,118.828 194.900 C 118.539 194.185,118.157 193.600,117.978 193.600 C 117.800 193.600,117.526 193.195,117.371 192.700 C 116.347 189.445,110.503 184.534,108.330 185.103 C 107.323 185.366,102.400 190.204,102.400 190.931 C 102.400 191.193,102.040 191.632,101.600 191.907 C 101.160 192.182,100.800 192.647,100.800 192.941 C 100.800 193.235,100.440 193.802,100.000 194.200 C 99.560 194.598,99.200 195.221,99.200 195.584 C 99.200 195.947,98.750 196.855,98.200 197.600 C 97.650 198.345,97.200 199.288,97.200 199.694 C 97.200 200.101,96.840 200.820,96.400 201.292 C 95.960 201.764,95.600 202.525,95.600 202.981 C 95.600 203.438,95.263 204.440,94.852 205.208 C 94.440 205.976,93.976 207.358,93.820 208.279 C 93.665 209.200,93.293 210.157,92.994 210.405 C 92.695 210.653,92.328 211.878,92.177 213.128 C 92.027 214.378,91.677 215.670,91.400 216.000 C 91.123 216.330,90.772 217.680,90.622 219.000 C 90.471 220.320,90.023 222.300,89.625 223.400 C 89.227 224.500,88.771 226.660,88.611 228.200 C 88.452 229.740,88.138 231.223,87.915 231.496 C 87.691 231.770,87.318 234.162,87.086 236.813 C 86.739 240.780,86.556 241.612,86.053 241.515 C 85.648 241.437,85.434 240.924,85.421 239.998 C 85.404 238.860,85.232 238.576,84.500 238.472 C 84.005 238.402,83.600 238.081,83.600 237.760 C 83.600 237.438,83.285 237.058,82.900 236.915 C 82.515 236.772,81.930 236.343,81.600 235.961 C 80.004 234.115,79.650 233.748,78.806 233.060 C 77.818 232.255,77.038 232.759,77.334 234.012 C 77.494 234.688,76.632 235.699,76.234 235.301 C 75.209 234.276,73.413 236.283,73.401 238.467 C 73.401 238.613,73.265 238.868,73.100 239.033 C 72.935 239.198,72.800 238.108,72.800 236.611 C 72.800 234.700,72.973 233.756,73.381 233.444 C 73.801 233.124,74.033 231.718,74.216 228.400 C 74.362 225.755,74.774 222.865,75.185 221.600 C 75.579 220.390,76.027 218.232,76.181 216.804 C 76.335 215.376,76.605 214.026,76.782 213.804 C 76.958 213.582,77.314 212.156,77.574 210.635 C 77.834 209.114,78.301 207.506,78.611 207.062 C 78.922 206.618,79.295 205.211,79.439 203.934 C 79.584 202.658,79.944 201.412,80.240 201.167 C 80.537 200.921,80.902 200.064,81.052 199.263 C 81.202 198.462,81.747 197.013,82.263 196.044 C 82.778 195.074,83.200 193.970,83.200 193.589 C 83.200 193.209,83.458 192.683,83.774 192.421 C 84.090 192.159,84.470 191.372,84.619 190.672 C 84.767 189.973,85.126 189.130,85.417 188.799 C 85.707 188.469,86.141 187.749,86.382 187.199 C 86.808 186.226,87.619 184.856,89.540 181.863 C 90.056 181.059,90.641 180.400,90.840 180.400 C 91.038 180.400,91.200 180.154,91.200 179.852 C 91.200 179.159,96.635 173.706,97.645 173.386 C 98.060 173.254,98.400 172.992,98.400 172.804 C 98.400 172.616,99.075 172.245,99.900 171.979 C 100.725 171.713,101.622 171.320,101.893 171.105 C 103.570 169.775,113.216 169.851,116.283 171.220 M130.038 221.338 C 129.732 222.393,129.673 222.141,129.676 219.800 C 129.680 217.260,129.714 217.143,130.042 218.538 C 130.258 219.459,130.257 220.582,130.038 221.338 M143.527 219.784 C 143.597 220.621,143.492 221.468,143.294 221.666 C 143.080 221.880,142.923 221.818,142.907 221.513 C 142.893 221.231,142.759 220.305,142.609 219.456 C 142.399 218.265,142.458 217.952,142.868 218.087 C 143.161 218.183,143.457 218.947,143.527 219.784 M84.200 236.000 C 84.064 236.220,84.188 236.403,84.476 236.406 C 84.861 236.411,84.841 236.525,84.400 236.837 C 83.867 237.214,83.867 237.243,84.400 237.097 C 85.080 236.912,85.476 235.600,84.853 235.600 C 84.630 235.600,84.336 235.780,84.200 236.000" fill="url(#darkGreen)" fill-rule="evenodd" filter="url(#softGlow)"/>
      <path d="M104.493 170.380 C 103.333 170.564,102.163 170.890,101.893 171.105 C 101.622 171.320,100.725 171.713,99.900 171.979 C 99.075 172.245,98.400 172.616,98.400 172.804 C 98.400 172.992,98.060 173.254,97.645 173.386 C 96.635 173.706,91.200 179.159,91.200 179.852 C 91.200 180.154,91.038 180.400,90.840 180.400 C 90.641 180.400,90.056 181.059,89.540 181.863 C 87.619 184.856,86.808 186.226,86.382 187.199 C 86.141 187.749,85.707 188.469,85.417 188.799 C 85.126 189.130,84.767 189.973,84.619 190.672 C 84.470 191.372,84.090 192.159,83.774 192.421 C 83.458 192.683,83.200 193.209,83.200 193.589 C 83.200 193.970,82.778 195.074,82.263 196.044 C 81.747 197.013,81.202 198.462,81.052 199.263 C 80.902 200.064,80.537 200.921,80.240 201.167 C 79.944 201.412,79.584 202.658,79.439 203.934 C 79.295 205.211,78.922 206.618,78.611 207.062 C 78.301 207.506,77.834 209.114,77.574 210.635 C 77.314 212.156,76.958 213.582,76.782 213.804 C 76.605 214.026,76.335 215.376,76.181 216.804 C 76.027 218.232,75.579 220.390,75.185 221.600 C 74.774 222.865,74.362 225.755,74.216 228.400 C 74.033 231.718,73.801 233.124,73.381 233.444 C 72.973 233.756,72.800 234.700,72.800 236.611 C 72.800 238.108,72.935 239.198,73.100 239.033 C 73.265 238.868,73.401 238.613,73.401 238.467 C 73.413 236.283,75.209 234.276,76.234 235.301 C 76.632 235.699,77.494 234.688,77.334 234.012 C 77.038 232.759,77.818 232.255,78.806 233.060 C 79.650 233.748,80.004 234.115,81.600 235.961 C 81.930 236.343,82.515 236.772,82.900 236.915 C 83.285 237.058,83.600 237.438,83.600 237.760 C 83.600 238.081,84.005 238.402,84.500 238.472 C 85.232 238.576,85.404 238.860,85.421 239.998 C 85.434 240.924,85.648 241.437,86.053 241.515 C 86.556 241.612,86.739 240.780,87.086 236.813 C 87.318 234.162,87.691 231.770,87.915 231.496 C 88.138 231.223,88.452 229.740,88.611 228.200 C 88.771 226.660,89.227 224.500,89.625 223.400 C 90.023 222.300,90.471 220.320,90.622 219.000 C 90.772 217.680,91.123 216.330,91.400 216.000 C 91.677 215.670,92.027 214.378,92.177 213.128 C 92.328 211.878,92.695 210.653,92.994 210.405 C 93.293 210.157,93.665 209.200,93.820 208.279 C 93.976 207.358,94.440 205.976,94.852 205.208 C 95.263 204.440,95.600 203.438,95.600 202.981 C 95.600 202.525,95.960 201.764,96.400 201.292 C 96.840 200.820,97.200 200.101,97.200 199.694 C 97.200 199.288,97.650 198.345,98.200 197.600 C 98.750 196.855,99.200 195.947,99.200 195.584 C 99.200 195.221,99.560 194.598,100.000 194.200 C 100.440 193.802,100.800 193.235,100.800 192.941 C 100.800 192.647,101.160 192.182,101.600 191.907 C 102.040 191.632,102.400 191.193,102.400 190.931 C 102.400 190.204,107.323 185.366,108.330 185.103 C 110.503 184.534,116.347 189.445,117.371 192.700 C 117.526 193.195,117.800 193.600,117.978 193.600 C 118.157 193.600,118.539 194.185,118.828 194.900 C 119.117 195.615,119.573 196.335,119.841 196.500 C 120.110 196.665,120.449 197.506,120.595 198.369 C 120.740 199.232,121.082 200.023,121.354 200.127 C 121.626 200.231,122.078 201.084,122.359 202.022 C 122.640 202.960,123.124 203.982,123.435 204.292 C 123.746 204.603,124.111 205.553,124.247 206.404 C 124.383 207.254,124.721 208.037,124.997 208.143 C 125.273 208.250,125.629 209.199,125.787 210.252 C 125.945 211.306,126.418 212.605,126.837 213.138 C 127.257 213.671,127.600 214.429,127.600 214.821 C 127.600 216.048,128.058 216.800,128.805 216.800 C 129.413 216.800,129.491 216.553,129.309 215.200 C 129.168 214.149,129.250 213.600,129.547 213.600 C 129.812 213.600,130.003 214.305,130.006 215.300 C 130.015 217.836,130.352 218.166,132.327 217.575 C 133.747 217.149,133.913 216.984,133.568 216.340 C 133.240 215.727,133.472 215.316,134.885 214.012 C 136.337 212.672,136.638 212.534,136.847 213.114 C 136.988 213.506,136.855 213.939,136.539 214.125 C 136.233 214.303,136.088 214.618,136.215 214.825 C 136.343 215.031,136.257 215.200,136.024 215.200 C 135.791 215.200,135.600 215.538,135.600 215.951 C 135.600 216.364,135.330 216.926,135.000 217.200 C 134.428 217.674,134.159 218.800,134.617 218.800 C 134.846 218.800,135.559 218.252,136.829 217.100 C 137.253 216.715,137.881 216.400,138.224 216.400 C 138.567 216.400,138.743 216.231,138.615 216.024 C 138.487 215.818,138.747 215.676,139.191 215.709 C 139.636 215.743,140.000 215.899,140.000 216.057 C 140.000 216.471,141.192 217.600,141.629 217.600 C 142.225 217.600,142.022 212.749,141.353 211.000 C 141.016 210.120,140.565 208.590,140.352 207.600 C 140.138 206.610,139.722 205.350,139.428 204.800 C 139.133 204.250,138.771 203.233,138.623 202.539 C 138.475 201.846,138.004 200.592,137.577 199.754 C 137.150 198.916,136.800 197.990,136.800 197.695 C 136.800 197.400,136.443 196.493,136.007 195.679 C 135.570 194.866,134.647 193.030,133.955 191.600 C 132.125 187.818,131.354 186.433,130.637 185.641 C 130.287 185.254,130.000 184.788,130.000 184.606 C 130.000 184.424,129.550 183.686,129.000 182.964 C 128.450 182.243,128.000 181.505,128.000 181.323 C 128.000 181.141,127.640 180.768,127.200 180.493 C 126.760 180.218,126.400 179.805,126.400 179.574 C 126.400 178.980,121.710 174.406,119.800 173.137 C 115.751 170.448,110.277 169.462,104.493 170.380 M129.676 219.800 C 129.673 222.141,129.732 222.393,130.038 221.338 C 130.257 220.582,130.258 219.459,130.042 218.538 C 129.714 217.143,129.680 217.260,129.676 219.800 M142.609 219.456 C 142.759 220.305,142.893 221.231,142.907 221.513 C 142.923 221.818,143.080 221.880,143.294 221.666 C 143.825 221.135,143.487 218.290,142.868 218.087 C 142.458 217.952,142.399 218.265,142.609 219.456 M85.129 236.267 C 85.058 236.634,84.730 237.007,84.400 237.097 C 83.867 237.243,83.867 237.214,84.400 236.837 C 84.841 236.525,84.861 236.411,84.476 236.406 C 84.188 236.403,84.064 236.220,84.200 236.000 C 84.601 235.351,85.270 235.543,85.129 236.267" fill="url(#lightGreen)" fill-rule="evenodd" filter="url(#softGlow)"/>
    </g>
</svg>
